<svg height="512" viewBox="0 0 128 128" width="512" xmlns="http://www.w3.org/2000/svg"><g id="Circle_Grid" data-name="Circle Grid"><circle cx="64" cy="64" fill="#3b5059" r="64"/></g><g id="icon"><path d="m88.848 80.138c0-26.108-24.834-57.138-24.834-57.138s-24.862 29.229-24.862 57.138a24.848 24.848 0 1 0 49.7 0" fill="#ef5261"/><g fill="#eeefee"><path d="m74.176 64.875h3.217v10.367h-3.217z"/><path d="m74.176 64.875h3.217v10.367h-3.217z" transform="matrix(0 1 -1 0 145.843 -5.726)"/><path d="m68.935 78.253c0 9.1-4.4 13.926-11.148 13.926-6.983 0-10.755-5.413-10.755-13.416 0-8.4 4.088-13.888 11.148-13.888 7.22 0 10.755 5.531 10.755 13.378zm-16.983.42c0 5.246.857 8.944 6.033 8.944 5.213 0 6.07-3.626 6.07-9.2 0-4.882-.556-8.981-6.033-8.981-5.437.001-6.07 3.844-6.07 9.237z"/></g></g></svg>